PathFileType	4	(X/Y/Z)	C:\Users\WrightLab\Desktop\Jo\P5V17.trc
DataRate	CameraRate	NumFrames	NumMarkers	Units	OrigDataRate	OrigDataStartFrame	OrigNumFrames
100.00	100.00	       13	19	mm	100.00	317	       633
Frame#	Time	Headset_Front			Headset_Back			Headset_Left			Headset_Right			Left_Shoulder			Right_Shoulder			Sternum			C7			Left Elbow			Right Elbow			Left Wrist			Right Wrist			Left ASIS			Right ASIS			S2			Left Knee			Right Knee			Left Ankle			Right Ankle			
		X1	Y1	Z1	X2	Y2	Z2	X3	Y3	Z3	X4	Y4	Z4	X5	Y5	Z5	X6	Y6	Z6	X7	Y7	Z7	X8	Y8	Z8	X9	Y9	Z9	X10	Y10	Z10	X11	Y11	Z11	X12	Y12	Z12	X13	Y13	Z13	X14	Y14	Z14	X15	Y15	Z15	X16	Y16	Z16	X17	Y17	Z17	X18	Y18	Z18	X19	Y19	Z19	

317	3.160	223.78679	1553.26563	624.39893							89.74265	1619.82385	590.41833	266.88412	1501.69214	237.60289	-31.51963	1460.71448	529.79419	187.30348	1337.28052	469.93652	33.25965	1511.68982	305.78604	303.42459	1232.69434	140.01117	-164.35059	1207.66602	514.25104	414.51935	1201.29883	324.24225	-19.71428	1139.79089	685.88971	299.74417	942.31049	380.56906	88.45727	955.34589	561.56024	39.89286	961.30560	225.36241	358.32544	517.13843	356.86667	-8.40767	483.97641	530.09479	382.78854	109.06071	336.53961	-241.20795	199.56128	347.47186	
318	3.170	226.40222	1553.57202	630.66132							94.74130	1619.81982	593.82214	276.35114	1503.85498	244.48444	-28.00154	1463.30469	531.63623	194.16942	1338.97522	475.87329	41.44880	1512.60461	309.55725	315.62482	1234.19446	147.89731	-158.24731	1209.06421	514.10577	423.50824	1202.33643	334.54044	-17.85410	1140.47693	687.68640	308.19644	945.09119	385.69366	96.44256	957.03503	564.26019	50.39497	962.65222	231.55589	364.73517	519.58130	359.90094	4.23081	485.18146	531.99115	383.45731	108.45316	336.66370	-227.99849	207.37627	354.21561	
319	3.180	228.73955	1554.69348	636.84558							95.79580	1621.16638	598.52087	285.19168	1505.67004	251.68613	-23.25547	1464.57556	534.50610	200.52310	1340.37976	481.87939	49.88393	1513.70911	312.97534	328.69284	1236.59778	156.03577	-152.64355	1209.44983	513.41095	432.83865	1203.16296	344.71198	-14.56716	1141.10962	689.94775	316.47067	947.72296	390.81424	104.33492	958.60858	567.30634	60.48575	963.93933	237.84337	371.44791	520.84052	362.40186	17.24333	488.17749	531.23895	383.73630	107.70963	336.48425	-214.02940	216.20834	361.35083	
320	3.190	231.12036	1556.22168	643.37878							100.13781	1622.16309	602.57178	295.30533	1507.47815	259.66263	-18.11815	1465.44165	536.98810	207.42540	1342.62378	490.39169	58.07052	1514.89124	316.91095	341.97668	1238.52551	164.86246	-148.66786	1210.83521	513.14368	442.44516	1204.26892	355.46240	-13.33508	1141.91467	691.86432	324.91278	949.53485	396.35614	111.57092	960.92975	570.32574	70.76487	965.63892	243.86171	377.21375	522.33032	364.50717	32.87632	490.52899	534.48016	383.80423	107.28239	336.03735	-199.25148	225.09229	368.80759	
321	3.200	233.63274	1558.08850	650.37378							102.71572	1623.81128	607.56738	304.14908	1508.98706	267.73764	-13.30541	1466.73071	539.85852	213.04260	1344.30786	496.30646				354.12561	1240.21655	172.19357	-143.55569	1211.56299	512.52814	451.79962	1205.60620	365.84442	-10.26722	1142.86096	693.71722	332.43683	951.03918	402.36447	117.51911	962.90497	573.83429	80.52386	966.81561	249.13193	382.65961	523.53741	366.12531	49.40616	493.97858	541.14075	384.92889	107.72660	335.74973	-183.73618	233.89522	376.70383	
322	3.210	235.45267	1560.13013	657.09894							105.63115	1626.04492	612.45734	312.88303	1510.69568	274.19156	-8.84155	1468.71887	542.47882	218.09654	1345.56274	502.48828	73.70541	1518.05615	325.78323	367.30887	1242.53601	182.01192	-138.17250	1212.43811	512.30060	460.73416	1207.25061	376.06522	-9.04902	1143.70313	695.99646	340.31281	953.49384	408.27148	123.16216	964.68677	577.10571	89.50423	968.50665	255.08609	387.99475	525.02917	368.12366	67.34794	496.39423	547.43207	385.22168	107.88211	335.86105	-167.59671	241.93677	384.87094	
323	3.220	237.82434	1562.34131	663.81189							109.18855	1627.86279	617.01532	321.98785	1512.36792	283.74521	-4.69608	1470.01990	545.13123	222.74532	1346.64124	508.64902	81.75996	1519.95764	330.03729	380.27914	1245.06714	190.78540	-133.12485	1213.79688	512.01508	469.58276	1208.85352	387.15979	-6.58265	1145.53650	697.84668	346.62363	954.90607	414.65704	128.52988	966.16974	580.38531	97.75990	970.60883	259.60052	392.60431	526.24640	369.80005	84.99328	501.94092	555.55292	385.55246	107.88581	335.71973	-151.72940	249.94141	392.99768	
324	3.230	240.14816	1564.38635	670.85742							110.42097	1629.57874	622.25238	330.80487	1513.93030	293.63651	-0.88156	1471.41711	547.96844	226.65999	1348.53979	514.57300	89.73884	1522.02734	334.50595	392.54770	1247.87891	199.83463	-127.52113	1215.06689	512.15601	478.82220	1211.02734	397.61087	-3.76952	1145.82935	699.87787	354.57248	957.73688	421.44611	132.51877	967.32648	584.63312	106.43957	973.27466	264.46280	396.28412	527.04803	370.66495	105.00655	508.10968	565.35339	385.92017	108.05582	335.48712	-135.67801	257.67902	400.18085	
325	3.240	241.62279	1566.51660	677.91058							114.86425	1630.19629	626.53198	339.74832	1515.26880	302.96005	3.43709	1472.82703	550.87158	231.04153	1349.61157	521.07330	97.56239	1524.14905	338.97116	404.29633	1250.73059	209.21956	-121.53983	1215.98987	512.46039	487.25797	1213.02966	408.35971	-2.42521	1147.71033	701.25531	361.68460	960.23474	428.59543	135.23535	969.52814	588.86749	113.94429	975.50037	267.77069	399.80392	527.65961	371.63263	122.46308	512.40265	578.37866	386.19119	108.16751	335.44952	-119.99409	264.77963	407.28247	
326	3.250	243.48712	1568.19507	685.36572							116.79749	1631.63416	631.58276	348.36807	1516.92200	312.46030	7.42634	1474.82068	553.71912	234.65056	1350.32886	527.59491	105.44415	1526.23987	343.51843	416.57095	1253.79651	218.67174	-116.53088	1217.83069	513.16473	495.72812	1215.53674	419.41867	-0.42937	1149.12048	703.32343	368.20074	962.24561	436.27322	138.45338	970.68353	592.93658	121.59863	978.14471	271.81567	403.25092	528.64465	371.89459	140.36983	515.36841	591.13007	386.27155	108.16071	335.51349	-104.40863	271.02164	414.02039	
327	3.260	245.56253	1570.01074	691.85156							119.22290	1633.22974	636.67670	356.44104	1518.64355	321.12280	10.92574	1476.92749	556.58356	239.33112	1351.36194	533.88892	113.01046	1528.17908	348.14859	428.00436	1256.64526	229.17194	-111.32709	1219.62085	511.97403	503.51816	1218.26587	431.17764	1.77285	1150.52991	705.13971	372.48117	963.52399	444.99484	140.69994	972.15570	597.06384	128.80746	980.22003	275.61307	406.25735	528.69366	372.59277	157.58623	517.02222	605.12933	386.20865	108.18285	335.77795	-87.67326	276.69885	419.27347	
328	3.270	247.96356	1571.04736	698.60577							122.53989	1634.46985	641.55078	364.51956	1520.39172	330.70328	14.97210	1478.01050	559.94202	242.84482	1352.60876	540.38696	120.58744	1530.11646	352.92270	440.27133	1259.59790	240.16547	-106.34516	1221.15857	512.73737	510.85165	1220.74500	442.18613	3.05180	1151.48230	707.71222	376.90576	964.70142	453.80954	142.53389	974.04248	602.21777	136.75983	982.33179	279.75580	408.87732	528.53009	373.34766	174.36302	518.56757	619.99036	386.40897	108.33606	335.86987	-70.89228	281.10403	425.78076	
329	3.280	249.61433	1572.42712	705.35907							124.42214	1635.75024	646.65448	372.35992	1522.13611	339.83923	18.95085	1480.04395	562.86725	245.52133	1353.76270	546.55438	127.78528	1531.78687	357.78748	451.66678	1262.53455	250.58270	-101.52431	1222.63818	513.83179	518.39874	1223.79041	453.99005	7.01012	1152.13367	709.97198	381.60355	965.64789	463.05313	144.02344	975.58655	607.76080	144.16127	983.76086	283.32520	411.82660	527.88336	374.29990	190.92719	520.35828	634.15332	386.33072	108.51065	336.33301	-53.84117	284.13126	433.69025	
